<svg id="_x31__x2C_5" enable-background="new 0 0 24 24" height="512" viewBox="0 0 24 24" width="512" xmlns="http://www.w3.org/2000/svg"><path d="m13.861 3.609h-6.144-4.578c-1.417 0-2.564 1.147-2.564 2.564v9.081 2.573c0 1.417 1.147 2.564 2.564 2.564h6.144 4.578c1.417 0 2.564-1.147 2.564-2.564v-9.081-2.573c0-1.417-1.147-2.564-2.564-2.564z" fill="#2196f3"/><path d="m11.875 2.125h-.99c-.297-1.035-1.251-1.8-2.385-1.8s-2.088.765-2.385 1.8h-.99c-.369 0-.675.306-.675.675v1.8c0 .864.711 1.575 1.575 1.575h4.95c.864 0 1.575-.711 1.575-1.575v-1.8c0-.369-.306-.675-.675-.675z" fill="#1976d2"/><path d="m18 23.525c-.12 0-.24-.024-.352-.072-.215-.092-5.273-2.294-5.273-6.855v-3.616c0-.385.245-.728.61-.852l4.725-1.607c.188-.064.392-.064.58 0l4.725 1.607c.365.124.61.467.61.852v3.616c0 4.561-5.057 6.763-5.273 6.855-.112.048-.232.072-.352.072z" fill="#4caf50"/><path d="m18 24c-.1 0-.2-.02-.294-.06-.232-.099-5.706-2.483-5.706-7.386v-4.018c0-.321.204-.606.509-.71l5.25-1.786c.156-.053.326-.053.482 0l5.25 1.786c.305.104.509.389.509.71v4.018c0 4.903-5.474 7.287-5.706 7.387-.094.039-.194.059-.294.059zm-4.5-10.927v3.48c0 3.333 3.456 5.337 4.5 5.865 1.044-.528 4.5-2.532 4.5-5.865v-3.48l-4.5-1.531z"/><path d="m17.75 19.5c-.198 0-.39-.078-.53-.22l-2-2c-.293-.293-.293-.768 0-1.061s.768-.293 1.061 0l1.389 1.389 2.48-3.308c.246-.331.717-.4 1.05-.149.331.248.398.718.149 1.05l-3 4c-.13.174-.329.282-.547.298-.017 0-.034.001-.052.001z"/><path d="m10.59 21h-7.84c-1.517 0-2.75-1.233-2.75-2.75v-12.5c0-1.517 1.233-2.75 2.75-2.75h1.88c.414 0 .75.336.75.75s-.336.75-.75.75h-1.88c-.689 0-1.25.561-1.25 1.25v12.5c0 .689.561 1.25 1.25 1.25h7.84c.414 0 .75.336.75.75s-.336.75-.75.75z"/><path d="m16.25 8.93c-.414 0-.75-.336-.75-.75v-2.43c0-.689-.561-1.25-1.25-1.25h-1.87c-.414 0-.75-.336-.75-.75s.336-.75.75-.75h1.87c1.517 0 2.75 1.233 2.75 2.75v2.43c0 .414-.336.75-.75.75z"/><path d="m11.25 6.5h-5.5c-.965 0-1.75-.785-1.75-1.75v-2c0-.414.336-.75.75-.75h1.104c.328-1.153 1.389-2 2.646-2s2.318.847 2.646 2h1.104c.414 0 .75.336.75.75v2c0 .965-.785 1.75-1.75 1.75zm-5.75-3v1.25c0 .138.112.25.25.25h5.5c.138 0 .25-.112.25-.25v-1.25h-1c-.414 0-.75-.336-.75-.75 0-.689-.561-1.25-1.25-1.25s-1.25.561-1.25 1.25c0 .414-.336.75-.75.75z"/><path d="m13.25 9.5h-9.5c-.414 0-.75-.336-.75-.75s.336-.75.75-.75h9.5c.414 0 .75.336.75.75s-.336.75-.75.75z"/><path d="m9.87 12.5h-6.12c-.414 0-.75-.336-.75-.75s.336-.75.75-.75h6.12c.414 0 .75.336.75.75s-.336.75-.75.75z"/><path d="m9.75 15.5h-6c-.414 0-.75-.336-.75-.75s.336-.75.75-.75h6c.414 0 .75.336.75.75s-.336.75-.75.75z"/></svg>