<svg height="480pt" viewBox="-40 0 480 480" width="480pt" xmlns="http://www.w3.org/2000/svg"><path d="m288 88c0 48.601562-39.398438 88-88 88-48.597656 0-88-39.398438-88-88s39.402344-88 88-88c48.601562 0 88 39.398438 88 88zm0 0" fill="#d1a339"/><path d="m264 88c0 35.347656-28.652344 64-64 64-35.34375 0-64-28.652344-64-64s28.65625-64 64-64c35.347656 0 64 28.652344 64 64zm0 0" fill="#f0d365"/><path d="m328 344v64l-128 72v-120" fill="#a66d43"/><path d="m72 344v64l128 72v-120" fill="#674025"/><path d="m227.578125 351.511719-27.578125-15.511719-27.574219 15.511719 27.574219 14.777343zm0 0" fill="#a66d43"/><path d="m200 225.710938 48-25.710938 128 72-44.796875 24zm0 0" fill="#c18e59"/><path d="m331.203125 296-131.203125 70.289062 48 25.710938 128-72zm0 0" fill="#c18e59"/><path d="m200 366.289062-48 25.710938-128-72 44.800781-24zm0 0" fill="#c18e59"/><path d="m68.800781 296 131.199219-70.289062-48-25.710938-128 72zm0 0" fill="#a66d43"/><path d="m172.425781 351.511719-103.625-55.511719 131.199219-70.289062v110.289062zm0 0" fill="#674025"/><path d="m200 336v-110.289062l131.203125 70.289062-103.625 55.511719z" fill="#a66d43"/><g fill="#d1a339"><path d="m200 48c8.824219 0 16 7.175781 16 16h16c0-14.863281-10.230469-27.289062-24-30.863281v-17.136719h-16v17.136719c-13.765625 3.574219-24 16-24 30.863281 0 17.648438 14.351562 32 32 32 8.824219 0 16 7.175781 16 16s-7.175781 16-16 16-16-7.175781-16-16h-16c0 14.863281 10.234375 27.289062 24 30.863281v17.136719h16v-17.136719c13.769531-3.574219 24-16 24-30.863281 0-17.648438-14.351562-32-32-32-8.824219 0-16-7.175781-16-16s7.175781-16 16-16zm0 0"/><path d="m400 112h-24v-16h-16v16h-16c-3.230469 0-6.160156 1.953125-7.390625 4.9375-1.238281 2.992188-.550781 6.429688 1.734375 8.71875l34.347656 34.34375h-36.691406v16h24v16h16v-16h16c3.234375 0 6.160156-1.953125 7.394531-4.9375 1.238281-2.992188.550781-6.429688-1.738281-8.71875l-34.34375-34.34375h36.6875zm0 0"/><path d="m40 96h-16v16h-16c-3.230469 0-6.160156 1.953125-7.390625 4.9375-1.238281 2.992188-.5507812 6.429688 1.734375 8.71875l34.347656 34.34375h-36.691406v16h24v16h16v-16h16c3.234375 0 6.160156-1.953125 7.394531-4.9375 1.238281-2.992188.550781-6.429688-1.738281-8.71875l-34.34375-34.34375h36.6875v-16h-24zm0 0"/></g></svg>