<svg enable-background="new 0 0 24 24" height="512" viewBox="0 0 24 24" width="512" xmlns="http://www.w3.org/2000/svg"><path d="m19.246 6.48v12.066c0 .511-.414.925-.925.925h-16.744c-.453 0-.823-.37-.823-.823v-12.168z" fill="#ffb74d"/><path d="m19 6.176h-18l2.695-4.855c.165-.302.496-.496.846-.496h10.917c.35 0 .681.195.846.496z" fill="#ffa726"/><path d="m17.5 23.4c-.142 0-.283-.044-.403-.133-.558-.415-5.447-4.141-5.447-7.302 0-1.855 1.514-3.364 3.375-3.364.957 0 1.848.401 2.475 1.074.627-.673 1.518-1.074 2.475-1.074 1.861 0 3.375 1.509 3.375 3.364 0 3.161-4.89 6.888-5.447 7.302-.12.089-.261.133-.403.133z" fill="#f44336"/><path d="m17.5 24c-.157 0-.314-.049-.447-.148-.62-.461-6.053-4.602-6.053-8.114 0-2.061 1.682-3.738 3.75-3.738 1.063 0 2.054.446 2.75 1.194.696-.748 1.687-1.194 2.75-1.194 2.068 0 3.75 1.677 3.75 3.738 0 3.512-5.433 7.653-6.053 8.114-.133.099-.29.148-.447.148zm-2.75-10.5c-1.241 0-2.25 1.004-2.25 2.238 0 2.138 3.276 5.19 5 6.564 1.724-1.374 5-4.426 5-6.564 0-1.234-1.009-2.238-2.25-2.238-.897 0-1.707.527-2.062 1.342-.238.548-1.137.548-1.375 0-.356-.815-1.166-1.342-2.063-1.342z"/><path d="m10.25 20h-8.674c-.869 0-1.576-.707-1.576-1.576v-12.174c0-.414.336-.75.75-.75h18.5c.414 0 .75.336.75.75v4c0 .414-.336.75-.75.75s-.75-.336-.75-.75v-3.25h-17v11.424c0 .042.034.076.076.076h8.674c.414 0 .75.336.75.75s-.336.75-.75.75z"/><path d="m19.25 7c-.263 0-.519-.139-.656-.386l-2.769-4.985c-.043-.08-.127-.129-.218-.129h-11.214c-.091 0-.175.049-.219.128l-2.768 4.986c-.202.361-.658.492-1.02.292-.362-.201-.493-.658-.292-1.02l2.769-4.986c.308-.555.894-.9 1.53-.9h11.214c.636 0 1.222.345 1.53.901l2.769 4.985c.201.362.07.819-.292 1.02-.115.064-.24.094-.364.094z"/><path d="m10 7c-.414 0-.75-.336-.75-.75v-5.5c0-.414.336-.75.75-.75s.75.336.75.75v5.5c0 .414-.336.75-.75.75z"/></svg>